Coordinates
version=1
nRows=60
nColumns=12
inDegrees=yes

Units are S.I. units (second, meters, Newtons, ...)
Angles are in degrees

endheader
time	SC_y	SC_z	SC_x	AC_y	AC_z	AC_x	GH_y	GH_z	GH_yy	EL_x	PS_y
       0.0              -36.31         -4.125          79.99          68.48         0.9764        -0.5238         -100.5         -8.935          6.024          16.53          10.09
   0.02161              -36.31         -4.124          79.98          68.47          0.975         -0.524         -100.5         -8.934          6.039          16.54           10.1
   0.04322              -36.31         -4.122          79.97          68.47         0.9736        -0.5241         -100.5         -8.934          6.055          16.56          10.11
   0.06482              -36.31         -4.121          79.96          68.47          0.972        -0.5243         -100.5         -8.933          6.073          16.57          10.13
   0.08643              -36.31         -4.119          79.94          68.47         0.9704        -0.5245         -100.5         -8.932          6.091          16.59          10.14
     0.108              -36.31         -4.118          79.93          68.46         0.9686        -0.5247         -100.5         -8.931          6.111          16.61          10.16
    0.1296              -36.31         -4.116          79.92          68.46         0.9667        -0.5249         -100.6          -8.93          6.132          16.62          10.17
    0.1513              -36.31         -4.114           79.9          68.46         0.9647        -0.5251         -100.6         -8.928          6.154          16.64          10.19
    0.1729              -36.31         -4.112          79.89          68.45         0.9626        -0.5253         -100.6         -8.927          6.179          16.66          10.21
    0.1945              -36.31          -4.11          79.87          68.45         0.9603        -0.5256         -100.6         -8.926          6.204          16.69          10.23
    0.2161              -36.31         -4.107          79.86          68.45         0.9578        -0.5258         -100.6         -8.924          6.232          16.71          10.26
    0.2377              -36.31         -4.105          79.84          68.44         0.9551        -0.5261         -100.6         -8.923          6.262          16.74          10.28
    0.2593              -36.31         -4.102          79.82          68.44         0.9522        -0.5264         -100.6         -8.921          6.294          16.76          10.31
    0.2809              -36.31         -4.099           79.8          68.43         0.9491        -0.5268         -100.6         -8.919          6.329          16.79          10.33
    0.3025              -36.31         -4.096          79.77          68.43         0.9458        -0.5271         -100.7         -8.917          6.367          16.83          10.36
    0.3241              -36.31         -4.092          79.75          68.42         0.9421        -0.5275         -100.7         -8.915          6.407          16.86           10.4
    0.3457              -36.31         -4.088          79.72          68.42         0.9382         -0.528         -100.7         -8.912          6.452           16.9          10.43
    0.3673              -36.31         -4.084          79.69          68.41         0.9339        -0.5284         -100.7          -8.91            6.5          16.94          10.47
    0.3889              -36.31          -4.08          79.66           68.4         0.9292         -0.529         -100.7         -8.907          6.553          16.99          10.51
    0.4105              -36.31         -4.075          79.62           68.4          0.924        -0.5295         -100.8         -8.904           6.61          17.03          10.56
    0.4322              -36.31         -4.069          79.58          68.39         0.9183        -0.5301         -100.8         -8.901          6.674          17.09          10.61
    0.4538              -36.31         -4.063          79.54          68.38         0.9121        -0.5308         -100.8         -8.897          6.744          17.15          10.67
    0.4754              -36.31         -4.056          79.49          68.37         0.9052        -0.5316         -100.9         -8.893          6.821          17.22          10.73
     0.497              -36.31         -4.049          79.44          68.36         0.8976        -0.5324         -100.9         -8.888          6.906          17.29           10.8
    0.5186              -36.31         -4.041          79.38          68.34         0.8891        -0.5333         -101.0         -8.883          7.001          17.37          10.87
    0.5402              -36.31         -4.032          79.31          68.33         0.8797        -0.5344         -101.0         -8.878          7.107          17.46          10.96
    0.5618              -36.31         -4.022          79.24          68.31         0.8691        -0.5355         -101.1         -8.871          7.226          17.56          11.06
    0.5834              -36.31          -4.01          79.15          68.29         0.8572        -0.5368         -101.1         -8.864          7.359          17.68          11.16
     0.605              -36.31         -3.997          79.06          68.27         0.8437        -0.5383         -101.2         -8.856           7.51          17.81          11.28
    0.6266              -36.31         -3.982          78.95          68.25         0.8284        -0.5399         -101.3         -8.847          7.681          17.95          11.42
    0.6482              -36.31         -3.966          78.83          68.22          0.811        -0.5419         -101.4         -8.837          7.877          18.12          11.58
    0.6698              -36.31         -3.946          78.69          68.19         0.7909         -0.544         -101.5         -8.825          8.101          18.31          11.76
    0.6914              -36.31         -3.924          78.53          68.16         0.7678        -0.5466         -101.6         -8.811           8.36          18.54          11.97
    0.7131              -36.31         -3.898          78.34          68.12         0.7409        -0.5495         -101.7         -8.795          8.661           18.8          12.21
    0.7347              -36.31         -3.868          78.12          68.07         0.7095        -0.5529         -101.9         -8.776          9.013           19.1           12.5
    0.7563              -36.31         -3.832          77.86          68.01         0.6725         -0.557         -102.1         -8.754          9.428          19.45          12.83
    0.7779               -36.3         -3.789          77.56          67.94         0.6284        -0.5618         -102.3         -8.728          9.921          19.88          13.23
    0.7995               -36.3         -3.738          77.19          67.86         0.5756        -0.5675         -102.6         -8.696          10.51          20.39           13.7
    0.8211               -36.3         -3.677          76.74          67.77         0.5118        -0.5745         -102.9         -8.658          11.23           21.0          14.28
    0.8427               -36.3         -3.601           76.2          67.65         0.4337         -0.583         -103.3         -8.611           12.1          21.75          14.98
    0.8643               -36.3         -3.508          75.53           67.5         0.3375        -0.5935         -103.8         -8.554          13.18          22.68          15.85
    0.8859              -36.29         -3.393          74.69          67.32         0.2174        -0.6066         -104.4         -8.482          14.53          23.83          16.93
    0.9075              -36.29         -3.247          73.63          67.09        0.06613        -0.6231         -105.2         -8.392          16.22          25.29           18.3
    0.9291              -36.28         -3.061          72.29          66.79        -0.1261        -0.6441         -106.2         -8.277          18.37          27.14          20.03
    0.9507              -36.28         -2.823          70.57          66.42        -0.3723         -0.671         -107.4         -8.131          21.13           29.5          22.25
    0.9723              -36.27         -2.519          68.37          65.94        -0.6881        -0.7054         -109.0         -7.942          24.67          32.54           25.1
     0.994              -36.25         -2.129          65.55          65.32         -1.092        -0.7494         -111.1         -7.701          29.19          36.42          28.74
     1.016              -36.24          -1.64          62.01          64.55         -1.599        -0.8048         -113.7         -7.399          34.87           41.3          33.32
     1.037              -36.22         -1.043           57.7           63.6         -2.217        -0.8722         -116.9          -7.03          41.79          47.25          38.89
     1.059               -36.2        -0.3515          52.69          62.51         -2.933        -0.9504         -120.6         -6.602          49.82          54.14          45.36
      1.08              -36.18         0.3973          47.28          61.33         -3.709         -1.035         -124.6         -6.139          58.51          61.61          52.36
     1.102              -36.16          1.146          41.86          60.14         -4.485          -1.12         -128.5         -5.676           67.2          69.07          59.36
     1.124              -36.13          1.838          36.86          59.05         -5.202         -1.198         -132.2         -5.249          75.23          75.96          65.82
     1.145              -36.12          2.434          32.55          58.11          -5.82         -1.265         -135.4          -4.88          82.15          81.91           71.4
     1.167               -36.1          2.924          29.01          57.33         -6.327         -1.321         -138.0         -4.577          87.83          86.79          75.97
     1.188              -36.09          3.313          26.19          56.72         -6.731         -1.365         -140.1         -4.336          92.35          90.67          79.61
      1.21              -36.08          3.618          23.99          56.24         -7.046         -1.399         -141.7         -4.148          95.89          93.71          82.46
     1.232              -36.07          3.856          22.27          55.86         -7.292         -1.426         -143.0         -4.001          98.65          96.07          84.68
     1.253              -36.07          4.041          20.93          55.57         -7.485         -1.447         -143.9         -3.886          100.8          97.92          86.41
     1.275              -36.06          4.187          19.87          55.34         -7.636         -1.464         -144.7         -3.796          102.5          99.38          87.78
